<svg width="1024" height="1024" viewBox="0 0 1024 1024" fill="none" xmlns="http://www.w3.org/2000/svg">
  <path d="M512 100C456 100 412 144 412 200V300H312C256 300 212 344 212 400V624C212 680 256 724 312 724H712C768 724 812 680 812 624V400C812 344 768 300 712 300H612V200C612 144 568 100 512 100ZM512 160C535.2 160 552 176.8 552 200V300H472V200C472 176.8 488.8 160 512 160Z" fill="#4F46E5"/>
  <circle cx="512" cy="520" r="60" fill="#4F46E5"/>
  <rect x="452" y="580" width="120" height="40" rx="20" fill="#4F46E5"/>
</svg>