<svg width="1024" height="1024" viewBox="0 0 1024 1024" fill="none" xmlns="http://www.w3.org/2000/svg">
  <rect width="1024" height="1024" rx="180" fill="#4F46E5"/>
  <path d="M512 200C456 200 412 244 412 300V400H312C256 400 212 444 212 500V724C212 780 256 824 312 824H712C768 824 812 780 812 724V500C812 444 768 400 712 400H612V300C612 244 568 200 512 200ZM512 260C535.2 260 552 276.8 552 300V400H472V300C472 276.8 488.8 260 512 260Z" fill="white"/>
  <circle cx="512" cy="620" r="60" fill="white"/>
  <rect x="452" y="680" width="120" height="40" rx="20" fill="white"/>
</svg>